  0
SECTION
  2
HEADER
  9
$ACADVER
  1
AC1009
  9
$INSBASE
 10
0.0
 20
0.0
 30
0.0
  9
$EXTMIN
 10
0.0
 20
0.0
 30
0.0
  9
$EXTMAX
 10
0.0
 20
0.0
 30
0.0
  0
ENDSEC
  0
SECTION
  2
TABLES
  0
TABLE
  2
VPORT
 70
0
  0
ENDTAB
  0
TABLE
  2
LTYPE
 70
1
  0
LTYPE
  2
CONTINUOUS
 70
0
  3
Solid line
 72
65
 73
0
 40
0.0
  0
ENDTAB
  0
TABLE
  2
LAYER
 70
1
  0
LAYER
  2
0
 70
64
 62
7
  6
continuous
  0
ENDTAB
  0
TABLE
  2
STYLE
 70
1
  0
STYLE
  2
STANDARD
 70
0
 40
0
 41
1.0
 50
0.0
 71
0
 42
1
 3
ARIAL.TTF
 4

  0
ENDTAB
  0
TABLE
  2
VIEW
 70
0
  0
ENDTAB
  0
ENDSEC
  0
SECTION
  2
BLOCKS
  0
BLOCK
  8
0
  2
FACEFEAT
 70
0
 10
0.0
 20
0.0
 30
0.0
  3
FACEFEAT
  0
LINE
  8
0
 62
0
 10
141.73522
 20
-5.931055
 30
0.0
 11
142.451591
 21
-6.276090000000012
 31
0.0
  0
LINE
  8
0
 62
0
 10
95.6437
 20
1.0033
 30
0.0
 11
141.73521999999878
 21
-5.931055000008104
 31
0.0
  0
LINE
  8
0
 62
0
 10
142.451591
 20
-6.27609
 30
0.0
 11
143.07312
 21
-6.819900000000013
 31
0.0
  0
LINE
  8
0
 62
0
 10
143.07312
 20
-6.8199
 30
0.0
 11
143.44142000000002
 21
-7.45489999999999
 31
0.0
  0
LINE
  8
0
 62
0
 10
143.44142
 20
-7.4549
 30
0.0
 11
143.6446199999997
 21
-8.166100000000087
 31
0.0
  0
LINE
  8
0
 62
0
 10
143.64462
 20
-8.1661
 30
0.0
 11
143.64462
 21
-82.9945
 31
0.0
  0
LINE
  8
0
 62
0
 10
143.64462
 20
-82.9945
 30
0.0
 11
143.607072
 21
-83.308331
 31
0.0
  0
LINE
  8
0
 62
0
 10
143.607072
 20
-83.308331
 30
0.0
 11
143.51973700000008
 21
-83.58998700000002
 31
0.0
  0
LINE
  8
0
 62
0
 10
143.519737
 20
-83.589987
 30
0.0
 11
143.3815210000001
 21
-83.84479600000007
 31
0.0
  0
LINE
  8
0
 62
0
 10
143.381521
 20
-83.844796
 30
0.0
 11
143.19843200000005
 21
-84.06674800000005
 31
0.0
  0
LINE
  8
0
 62
0
 10
143.198432
 20
-84.066748
 30
0.0
 11
142.97647999999995
 21
-84.24983599999992
 31
0.0
  0
LINE
  8
0
 62
0
 10
142.97648
 20
-84.249836
 30
0.0
 11
142.72167199999998
 21
-84.38805199999997
 31
0.0
  0
LINE
  8
0
 62
0
 10
142.721672
 20
-84.388052
 30
0.0
 11
142.440015
 21
-84.475388
 31
0.0
  0
LINE
  8
0
 62
0
 10
142.440015
 20
-84.475388
 30
0.0
 11
142.12062
 21
-84.50325999999998
 31
0.0
  0
LINE
  8
0
 62
0
 10
142.12062
 20
-84.50326
 30
0.0
 11
99.659048
 21
-84.503295
 31
0.0
  0
LINE
  8
0
 62
0
 10
99.659048
 20
-84.503295
 30
0.0
 11
98.953224
 21
-84.57433799999998
 31
0.0
  0
LINE
  8
0
 62
0
 10
98.953224
 20
-84.574338
 30
0.0
 11
98.29602599999994
 21
-84.7781209999998
 31
0.0
  0
LINE
  8
0
 62
0
 10
98.296026
 20
-84.778121
 30
0.0
 11
97.70147299999991
 21
-85.10062499999984
 31
0.0
  0
LINE
  8
0
 62
0
 10
97.701473
 20
-85.100625
 30
0.0
 11
97.18358400000001
 21
-85.52783100000003
 31
0.0
  0
LINE
  8
0
 62
0
 10
97.183584
 20
-85.527831
 30
0.0
 11
96.75637799999997
 21
-86.04571999999997
 31
0.0
  0
LINE
  8
0
 62
0
 10
96.756378
 20
-86.04572
 30
0.0
 11
96.43387400000017
 21
-86.64027300000008
 31
0.0
  0
LINE
  8
0
 62
0
 10
96.433874
 20
-86.640273
 30
0.0
 11
96.2300910000002
 21
-87.29747100000006
 31
0.0
  0
LINE
  8
0
 62
0
 10
96.230091
 20
-87.297471
 30
0.0
 11
96.13392000000016
 21
-88.00592000000003
 31
0.0
  0
LINE
  8
0
 62
0
 10
96.13392
 20
-88.00592
 30
0.0
 11
96.13278
 21
-97.737334
 31
0.0
  0
LINE
  8
0
 62
0
 10
96.13278
 20
-97.737334
 30
0.0
 11
96.10233299999993
 21
-98.01743599999999
 31
0.0
  0
LINE
  8
0
 62
0
 10
96.102333
 20
-98.017436
 30
0.0
 11
96.01499700000004
 21
-98.29909200000002
 31
0.0
  0
LINE
  8
0
 62
0
 10
96.014997
 20
-98.299092
 30
0.0
 11
95.87678100000012
 21
-98.55390100000007
 31
0.0
  0
LINE
  8
0
 62
0
 10
95.876781
 20
-98.553901
 30
0.0
 11
95.69369300000007
 21
-98.77585300000005
 31
0.0
  0
LINE
  8
0
 62
0
 10
95.693693
 20
-98.775853
 30
0.0
 11
95.4717400000001
 21
-98.9589420000001
 31
0.0
  0
LINE
  8
0
 62
0
 10
95.47174
 20
-98.958942
 30
0.0
 11
95.21693199999999
 21
-99.09715799999996
 31
0.0
  0
LINE
  8
0
 62
0
 10
95.216932
 20
-99.097158
 30
0.0
 11
94.93527600000006
 21
-99.18449300000016
 31
0.0
  0
LINE
  8
0
 62
0
 10
94.935276
 20
-99.184493
 30
0.0
 11
94.63278
 21
-99.21494
 31
0.0
  0
LINE
  8
0
 62
0
 10
94.63278
 20
-99.21494
 30
0.0
 11
34.25952
 21
-99.21494
 31
0.0
  0
LINE
  8
0
 62
0
 10
34.25952
 20
-99.21494
 30
0.0
 11
21.53445799999901
 21
-106.5814559999983
 31
0.0
  0
LINE
  8
0
 62
0
 10
21.534458
 20
-106.581456
 30
0.0
 11
21.36656400000002
 21
-106.66697800000004
 31
0.0
  0
LINE
  8
0
 62
0
 10
21.366564
 20
-106.666978
 30
0.0
 11
21.20790600000001
 21
-106.71416800000003
 31
0.0
  0
LINE
  8
0
 62
0
 10
21.207906
 20
-106.714168
 30
0.0
 11
21.058952
 21
-106.723674
 31
0.0
  0
LINE
  8
0
 62
0
 10
21.058952
 20
-106.723674
 30
0.0
 11
20.92016999999999
 21
-106.69614500000004
 31
0.0
  0
LINE
  8
0
 62
0
 10
20.92017
 20
-106.696145
 30
0.0
 11
20.79202800000001
 21
-106.63223199999997
 31
0.0
  0
LINE
  8
0
 62
0
 10
20.792028
 20
-106.632232
 30
0.0
 11
20.674995000000003
 21
-106.532584
 31
0.0
  0
LINE
  8
0
 62
0
 10
20.674995
 20
-106.532584
 30
0.0
 11
20.56953699999998
 21
-106.39785000000002
 31
0.0
  0
LINE
  8
0
 62
0
 10
20.569537
 20
-106.39785
 30
0.0
 11
5.9181999999976505
 21
-80.97520000000135
 31
0.0
  0
LINE
  8
0
 62
0
 10
5.9182
 20
-80.9752
 30
0.0
 11
5.359400000000141
 21
-79.70519999999995
 31
0.0
  0
LINE
  8
0
 62
0
 10
5.3594
 20
-79.7052
 30
0.0
 11
5.0926999999999865
 21
-78.6892
 31
0.0
  0
LINE
  8
0
 62
0
 10
5.0927
 20
-78.6892
 30
0.0
 11
4.83870000000025
 21
-77.41919999999995
 31
0.0
  0
LINE
  8
0
 62
0
 10
4.8387
 20
-77.4192
 30
0.0
 11
4.711700000000042
 21
-75.9587
 31
0.0
  0
LINE
  8
0
 62
0
 10
4.7117
 20
-75.9587
 30
0.0
 11
4.648200000000025
 21
-75.1332
 31
0.0
  0
LINE
  8
0
 62
0
 10
4.6482
 20
-75.1332
 30
0.0
 11
4.584700000000035
 21
-73.9267
 31
0.0
  0
LINE
  8
0
 62
0
 10
4.5847
 20
-73.9267
 30
0.0
 11
4.639999999999978
 21
-0.054099999999991155
 31
0.0
  0
LINE
  8
0
 62
0
 10
4.64
 20
-0.0541
 30
0.0
 11
4.661983000000071
 21
0.16152499999999279
 31
0.0
  0
LINE
  8
0
 62
0
 10
4.661983
 20
0.161525
 30
0.0
 11
4.723116999999922
 21
0.35868500000002423
 31
0.0
  0
LINE
  8
0
 62
0
 10
4.723117
 20
0.358685
 30
0.0
 11
4.8198689999999935
 21
0.5370510000000033
 31
0.0
  0
LINE
  8
0
 62
0
 10
4.819869
 20
0.537051
 30
0.0
 11
4.9480300000000135
 21
0.6924169999999892
 31
0.0
  0
LINE
  8
0
 62
0
 10
4.94803
 20
0.692417
 30
0.0
 11
5.10339700000004
 21
0.820578999999951
 31
0.0
  0
LINE
  8
0
 62
0
 10
5.103397
 20
0.820579
 30
0.0
 11
5.281762999999977
 21
0.9173300000000428
 31
0.0
  0
LINE
  8
0
 62
0
 10
5.281763
 20
0.91733
 30
0.0
 11
5.4789219999999785
 21
0.9784650000000678
 31
0.0
  0
LINE
  8
0
 62
0
 10
5.478922
 20
0.978465
 30
0.0
 11
5.694099999999999
 21
1.0000000000000053
 31
0.0
  0
LINE
  8
0
 62
0
 10
5.6941
 20
1.0
 30
0.0
 11
95.64370000000001
 21
1.0033
 31
0.0
  0
LINE
  8
0
 62
0
 10
78.9897
 20
-80.2097
 30
0.0
 11
78.9897
 21
-94.0097
 31
0.0
  0
LINE
  8
0
 62
0
 10
78.9897
 20
-94.0097
 30
0.0
 11
92.7897
 21
-94.0097
 31
0.0
  0
LINE
  8
0
 62
0
 10
92.7897
 20
-94.0097
 30
0.0
 11
92.7897
 21
-80.2097
 31
0.0
  0
LINE
  8
0
 62
0
 10
92.7897
 20
-80.2097
 30
0.0
 11
78.9897
 21
-80.2097
 31
0.0
  0
LINE
  8
0
 62
0
 10
126.6897
 20
-67.4597
 30
0.0
 11
126.6897
 21
-81.2597
 31
0.0
  0
LINE
  8
0
 62
0
 10
126.6897
 20
-81.2597
 30
0.0
 11
140.4897
 21
-81.2597
 31
0.0
  0
LINE
  8
0
 62
0
 10
140.4897
 20
-81.2597
 30
0.0
 11
140.4897
 21
-67.4597
 31
0.0
  0
LINE
  8
0
 62
0
 10
140.4897
 20
-67.4597
 30
0.0
 11
126.6897
 21
-67.4597
 31
0.0
  0
LINE
  8
0
 62
0
 10
107.6397
 20
-65.9597
 30
0.0
 11
107.6397
 21
-79.7597
 31
0.0
  0
LINE
  8
0
 62
0
 10
107.6397
 20
-79.7597
 30
0.0
 11
121.4397
 21
-79.7597
 31
0.0
  0
LINE
  8
0
 62
0
 10
121.4397
 20
-79.7597
 30
0.0
 11
121.4397
 21
-65.9597
 31
0.0
  0
LINE
  8
0
 62
0
 10
121.4397
 20
-65.9597
 30
0.0
 11
107.6397
 21
-65.9597
 31
0.0
  0
CIRCLE
  8
0
 62
0
 10
123.6397
 20
-63.3097
 30
0.0
 40
1.35
  0
LINE
  8
0
 62
0
 10
126.6897
 20
-48.4097
 30
0.0
 11
126.6897
 21
-62.2097
 31
0.0
  0
LINE
  8
0
 62
0
 10
126.6897
 20
-62.2097
 30
0.0
 11
140.4897
 21
-62.2097
 31
0.0
  0
LINE
  8
0
 62
0
 10
140.4897
 20
-62.2097
 30
0.0
 11
140.4897
 21
-48.4097
 31
0.0
  0
LINE
  8
0
 62
0
 10
140.4897
 20
-48.4097
 30
0.0
 11
126.6897
 21
-48.4097
 31
0.0
  0
LINE
  8
0
 62
0
 10
107.6397
 20
-46.9097
 30
0.0
 11
107.6397
 21
-60.7097
 31
0.0
  0
LINE
  8
0
 62
0
 10
107.6397
 20
-60.7097
 30
0.0
 11
121.4397
 21
-60.7097
 31
0.0
  0
LINE
  8
0
 62
0
 10
121.4397
 20
-60.7097
 30
0.0
 11
121.4397
 21
-46.9097
 31
0.0
  0
LINE
  8
0
 62
0
 10
121.4397
 20
-46.9097
 30
0.0
 11
107.6397
 21
-46.9097
 31
0.0
  0
LINE
  8
0
 62
0
 10
88.5897
 20
-61.1597
 30
0.0
 11
88.5897
 21
-74.9597
 31
0.0
  0
LINE
  8
0
 62
0
 10
88.5897
 20
-74.9597
 30
0.0
 11
102.3897
 21
-74.9597
 31
0.0
  0
LINE
  8
0
 62
0
 10
102.3897
 20
-74.9597
 30
0.0
 11
102.3897
 21
-61.1597
 31
0.0
  0
LINE
  8
0
 62
0
 10
102.3897
 20
-61.1597
 30
0.0
 11
88.5897
 21
-61.1597
 31
0.0
  0
LINE
  8
0
 62
0
 10
69.5397
 20
-59.7697
 30
0.0
 11
69.5397
 21
-73.5697
 31
0.0
  0
LINE
  8
0
 62
0
 10
69.5397
 20
-73.5697
 30
0.0
 11
83.3397
 21
-73.5697
 31
0.0
  0
LINE
  8
0
 62
0
 10
83.3397
 20
-73.5697
 30
0.0
 11
83.3397
 21
-59.7697
 31
0.0
  0
LINE
  8
0
 62
0
 10
83.3397
 20
-59.7697
 30
0.0
 11
69.5397
 21
-59.7697
 31
0.0
  0
LINE
  8
0
 62
0
 10
59.9374
 20
-81.238
 30
0.0
 11
59.9374
 21
-95.038
 31
0.0
  0
LINE
  8
0
 62
0
 10
59.9374
 20
-95.038
 30
0.0
 11
73.7374
 21
-95.038
 31
0.0
  0
LINE
  8
0
 62
0
 10
73.7374
 20
-95.038
 30
0.0
 11
73.7374
 21
-81.238
 31
0.0
  0
LINE
  8
0
 62
0
 10
73.7374
 20
-81.238
 30
0.0
 11
59.9374
 21
-81.238
 31
0.0
  0
LINE
  8
0
 62
0
 10
40.8897
 20
-82.6097
 30
0.0
 11
40.8897
 21
-96.4097
 31
0.0
  0
LINE
  8
0
 62
0
 10
40.8897
 20
-96.4097
 30
0.0
 11
54.6897
 21
-96.4097
 31
0.0
  0
LINE
  8
0
 62
0
 10
54.6897
 20
-96.4097
 30
0.0
 11
54.6897
 21
-82.6097
 31
0.0
  0
LINE
  8
0
 62
0
 10
54.6897
 20
-82.6097
 30
0.0
 11
40.8897
 21
-82.6097
 31
0.0
  0
LINE
  8
0
 62
0
 10
24.636275
 20
-79.931625
 30
0.0
 11
12.685124999999346
 21
-86.83162499999887
 31
0.0
  0
LINE
  8
0
 62
0
 10
12.685125
 20
-86.831625
 30
0.0
 11
19.58512499999887
 21
-98.78277500000065
 31
0.0
  0
LINE
  8
0
 62
0
 10
19.585125
 20
-98.782775
 30
0.0
 11
31.536275000000654
 21
-91.88277500000113
 31
0.0
  0
LINE
  8
0
 62
0
 10
31.536275
 20
-91.882775
 30
0.0
 11
24.636275000001127
 21
-79.93162499999934
 31
0.0
  0
CIRCLE
  8
0
 62
0
 10
22.8346
 20
-77.4192
 30
0.0
 40
1.35
  0
LINE
  8
0
 62
0
 10
50.4897
 20
-61.1597
 30
0.0
 11
50.4897
 21
-74.9597
 31
0.0
  0
LINE
  8
0
 62
0
 10
50.4897
 20
-74.9597
 30
0.0
 11
64.2897
 21
-74.9597
 31
0.0
  0
LINE
  8
0
 62
0
 10
64.2897
 20
-74.9597
 30
0.0
 11
64.2897
 21
-61.1597
 31
0.0
  0
LINE
  8
0
 62
0
 10
64.2897
 20
-61.1597
 30
0.0
 11
50.4897
 21
-61.1597
 31
0.0
  0
CIRCLE
  8
0
 62
0
 10
48.3362
 20
-58.8772
 30
0.0
 40
1.35
  0
LINE
  8
0
 62
0
 10
31.4397
 20
-63.5597
 30
0.0
 11
31.4397
 21
-77.3597
 31
0.0
  0
LINE
  8
0
 62
0
 10
31.4397
 20
-77.3597
 30
0.0
 11
45.2397
 21
-77.3597
 31
0.0
  0
LINE
  8
0
 62
0
 10
45.2397
 20
-77.3597
 30
0.0
 11
45.2397
 21
-63.5597
 31
0.0
  0
LINE
  8
0
 62
0
 10
45.2397
 20
-63.5597
 30
0.0
 11
31.4397
 21
-63.5597
 31
0.0
  0
LINE
  8
0
 62
0
 10
31.4397
 20
-44.5097
 30
0.0
 11
31.4397
 21
-58.3097
 31
0.0
  0
LINE
  8
0
 62
0
 10
31.4397
 20
-58.3097
 30
0.0
 11
45.2397
 21
-58.3097
 31
0.0
  0
LINE
  8
0
 62
0
 10
45.2397
 20
-58.3097
 30
0.0
 11
45.2397
 21
-44.5097
 31
0.0
  0
LINE
  8
0
 62
0
 10
45.2397
 20
-44.5097
 30
0.0
 11
31.4397
 21
-44.5097
 31
0.0
  0
LINE
  8
0
 62
0
 10
7.5145
 20
-54.695
 30
0.0
 11
7.5145
 21
-68.495
 31
0.0
  0
LINE
  8
0
 62
0
 10
7.5145
 20
-68.495
 30
0.0
 11
21.3145
 21
-68.495
 31
0.0
  0
LINE
  8
0
 62
0
 10
21.3145
 20
-68.495
 30
0.0
 11
21.3145
 21
-54.695
 31
0.0
  0
LINE
  8
0
 62
0
 10
21.3145
 20
-54.695
 30
0.0
 11
7.5145
 21
-54.695
 31
0.0
  0
LINE
  8
0
 62
0
 10
126.6897
 20
-29.3597
 30
0.0
 11
126.6897
 21
-43.1597
 31
0.0
  0
LINE
  8
0
 62
0
 10
126.6897
 20
-43.1597
 30
0.0
 11
140.4897
 21
-43.1597
 31
0.0
  0
LINE
  8
0
 62
0
 10
140.4897
 20
-43.1597
 30
0.0
 11
140.4897
 21
-29.3597
 31
0.0
  0
LINE
  8
0
 62
0
 10
140.4897
 20
-29.3597
 30
0.0
 11
126.6897
 21
-29.3597
 31
0.0
  0
LINE
  8
0
 62
0
 10
107.6397
 20
-27.8597
 30
0.0
 11
107.6397
 21
-41.6597
 31
0.0
  0
LINE
  8
0
 62
0
 10
107.6397
 20
-41.6597
 30
0.0
 11
121.4397
 21
-41.6597
 31
0.0
  0
LINE
  8
0
 62
0
 10
121.4397
 20
-41.6597
 30
0.0
 11
121.4397
 21
-27.8597
 31
0.0
  0
LINE
  8
0
 62
0
 10
121.4397
 20
-27.8597
 30
0.0
 11
107.6397
 21
-27.8597
 31
0.0
  0
LINE
  8
0
 62
0
 10
88.5897
 20
-42.1097
 30
0.0
 11
88.5897
 21
-55.9097
 31
0.0
  0
LINE
  8
0
 62
0
 10
88.5897
 20
-55.9097
 30
0.0
 11
102.3897
 21
-55.9097
 31
0.0
  0
LINE
  8
0
 62
0
 10
102.3897
 20
-55.9097
 30
0.0
 11
102.3897
 21
-42.1097
 31
0.0
  0
LINE
  8
0
 62
0
 10
102.3897
 20
-42.1097
 30
0.0
 11
88.5897
 21
-42.1097
 31
0.0
  0
LINE
  8
0
 62
0
 10
69.5397
 20
-40.7197
 30
0.0
 11
69.5397
 21
-54.5197
 31
0.0
  0
LINE
  8
0
 62
0
 10
69.5397
 20
-54.5197
 30
0.0
 11
83.3397
 21
-54.5197
 31
0.0
  0
LINE
  8
0
 62
0
 10
83.3397
 20
-54.5197
 30
0.0
 11
83.3397
 21
-40.7197
 31
0.0
  0
LINE
  8
0
 62
0
 10
83.3397
 20
-40.7197
 30
0.0
 11
69.5397
 21
-40.7197
 31
0.0
  0
LINE
  8
0
 62
0
 10
88.5897
 20
-23.0597
 30
0.0
 11
88.5897
 21
-36.8597
 31
0.0
  0
LINE
  8
0
 62
0
 10
88.5897
 20
-36.8597
 30
0.0
 11
102.3897
 21
-36.8597
 31
0.0
  0
LINE
  8
0
 62
0
 10
102.3897
 20
-36.8597
 30
0.0
 11
102.3897
 21
-23.0597
 31
0.0
  0
LINE
  8
0
 62
0
 10
102.3897
 20
-23.0597
 30
0.0
 11
88.5897
 21
-23.0597
 31
0.0
  0
LINE
  8
0
 62
0
 10
69.5397
 20
-21.6697
 30
0.0
 11
69.5397
 21
-35.4697
 31
0.0
  0
LINE
  8
0
 62
0
 10
69.5397
 20
-35.4697
 30
0.0
 11
83.3397
 21
-35.4697
 31
0.0
  0
LINE
  8
0
 62
0
 10
83.3397
 20
-35.4697
 30
0.0
 11
83.3397
 21
-21.6697
 31
0.0
  0
LINE
  8
0
 62
0
 10
83.3397
 20
-21.6697
 30
0.0
 11
69.5397
 21
-21.6697
 31
0.0
  0
LINE
  8
0
 62
0
 10
126.6897
 20
-10.3097
 30
0.0
 11
126.6897
 21
-24.1097
 31
0.0
  0
LINE
  8
0
 62
0
 10
126.6897
 20
-24.1097
 30
0.0
 11
140.4897
 21
-24.1097
 31
0.0
  0
LINE
  8
0
 62
0
 10
140.4897
 20
-24.1097
 30
0.0
 11
140.4897
 21
-10.3097
 31
0.0
  0
LINE
  8
0
 62
0
 10
140.4897
 20
-10.3097
 30
0.0
 11
126.6897
 21
-10.3097
 31
0.0
  0
CIRCLE
  8
0
 62
0
 10
123.6397
 20
-25.1097
 30
0.0
 40
1.35
  0
LINE
  8
0
 62
0
 10
107.6397
 20
-8.8097
 30
0.0
 11
107.6397
 21
-22.6097
 31
0.0
  0
LINE
  8
0
 62
0
 10
107.6397
 20
-22.6097
 30
0.0
 11
121.4397
 21
-22.6097
 31
0.0
  0
LINE
  8
0
 62
0
 10
121.4397
 20
-22.6097
 30
0.0
 11
121.4397
 21
-8.8097
 31
0.0
  0
LINE
  8
0
 62
0
 10
121.4397
 20
-8.8097
 30
0.0
 11
107.6397
 21
-8.8097
 31
0.0
  0
LINE
  8
0
 62
0
 10
88.5897
 20
-4.0097
 30
0.0
 11
88.5897
 21
-17.8097
 31
0.0
  0
LINE
  8
0
 62
0
 10
88.5897
 20
-17.8097
 30
0.0
 11
102.3897
 21
-17.8097
 31
0.0
  0
LINE
  8
0
 62
0
 10
102.3897
 20
-17.8097
 30
0.0
 11
102.3897
 21
-4.009699999999999
 31
0.0
  0
LINE
  8
0
 62
0
 10
102.3897
 20
-4.0097
 30
0.0
 11
88.5897
 21
-4.0097
 31
0.0
  0
LINE
  8
0
 62
0
 10
69.5397
 20
-2.6197
 30
0.0
 11
69.5397
 21
-16.4197
 31
0.0
  0
LINE
  8
0
 62
0
 10
69.5397
 20
-16.4197
 30
0.0
 11
83.3397
 21
-16.4197
 31
0.0
  0
LINE
  8
0
 62
0
 10
83.3397
 20
-16.4197
 30
0.0
 11
83.3397
 21
-2.6197
 31
0.0
  0
LINE
  8
0
 62
0
 10
83.3397
 20
-2.6197
 30
0.0
 11
69.5397
 21
-2.6197
 31
0.0
  0
LINE
  8
0
 62
0
 10
50.4897
 20
-42.1097
 30
0.0
 11
50.4897
 21
-55.9097
 31
0.0
  0
LINE
  8
0
 62
0
 10
50.4897
 20
-55.9097
 30
0.0
 11
64.2897
 21
-55.9097
 31
0.0
  0
LINE
  8
0
 62
0
 10
64.2897
 20
-55.9097
 30
0.0
 11
64.2897
 21
-42.1097
 31
0.0
  0
LINE
  8
0
 62
0
 10
64.2897
 20
-42.1097
 30
0.0
 11
50.4897
 21
-42.1097
 31
0.0
  0
LINE
  8
0
 62
0
 10
50.4897
 20
-23.0597
 30
0.0
 11
50.4897
 21
-36.8597
 31
0.0
  0
LINE
  8
0
 62
0
 10
50.4897
 20
-36.8597
 30
0.0
 11
64.2897
 21
-36.8597
 31
0.0
  0
LINE
  8
0
 62
0
 10
64.2897
 20
-36.8597
 30
0.0
 11
64.2897
 21
-23.0597
 31
0.0
  0
LINE
  8
0
 62
0
 10
64.2897
 20
-23.0597
 30
0.0
 11
50.4897
 21
-23.0597
 31
0.0
  0
LINE
  8
0
 62
0
 10
31.4397
 20
-25.4597
 30
0.0
 11
31.4397
 21
-39.2597
 31
0.0
  0
LINE
  8
0
 62
0
 10
31.4397
 20
-39.2597
 30
0.0
 11
45.2397
 21
-39.2597
 31
0.0
  0
LINE
  8
0
 62
0
 10
45.2397
 20
-39.2597
 30
0.0
 11
45.2397
 21
-25.4597
 31
0.0
  0
LINE
  8
0
 62
0
 10
45.2397
 20
-25.4597
 30
0.0
 11
31.4397
 21
-25.4597
 31
0.0
  0
CIRCLE
  8
0
 62
0
 10
48.26508
 20
-20.71878
 30
0.0
 40
1.35
  0
LINE
  8
0
 62
0
 10
50.4897
 20
-4.0097
 30
0.0
 11
50.4897
 21
-17.8097
 31
0.0
  0
LINE
  8
0
 62
0
 10
50.4897
 20
-17.8097
 30
0.0
 11
64.2897
 21
-17.8097
 31
0.0
  0
LINE
  8
0
 62
0
 10
64.2897
 20
-17.8097
 30
0.0
 11
64.2897
 21
-4.009699999999999
 31
0.0
  0
LINE
  8
0
 62
0
 10
64.2897
 20
-4.0097
 30
0.0
 11
50.4897
 21
-4.0097
 31
0.0
  0
LINE
  8
0
 62
0
 10
9.6067
 20
-11.8037
 30
0.0
 11
9.6067
 21
-24.0037
 31
0.0
  0
LINE
  8
0
 62
0
 10
9.6067
 20
-24.0037
 30
0.0
 11
21.4067
 21
-24.0037
 31
0.0
  0
LINE
  8
0
 62
0
 10
21.4067
 20
-24.0037
 30
0.0
 11
21.4067
 21
-11.8037
 31
0.0
  0
LINE
  8
0
 62
0
 10
21.4067
 20
-11.8037
 30
0.0
 11
9.6067
 21
-11.8037
 31
0.0
  0
LINE
  8
0
 62
0
 10
31.4397
 20
-6.4097
 30
0.0
 11
31.4397
 21
-20.2097
 31
0.0
  0
LINE
  8
0
 62
0
 10
31.4397
 20
-20.2097
 30
0.0
 11
45.2397
 21
-20.2097
 31
0.0
  0
LINE
  8
0
 62
0
 10
45.2397
 20
-20.2097
 30
0.0
 11
45.2397
 21
-6.409700000000001
 31
0.0
  0
LINE
  8
0
 62
0
 10
45.2397
 20
-6.4097
 30
0.0
 11
31.4397
 21
-6.4097
 31
0.0
  0
ENDBLK
  0
ENDSEC
  0
SECTION
  2
ENTITIES
  0
INSERT
  2
FACEFEAT
  8
0
 62
0
 10
0.0
 20
0.0
 30
0.0
  0
ENDSEC
  0
EOF
