  0
SECTION
  2
HEADER
  9
$ACADVER
  1
AC1009
  9
$INSBASE
 10
0.0
 20
0.0
 30
0.0
  9
$EXTMIN
 10
0.0
 20
0.0
 30
0.0
  9
$EXTMAX
 10
0.0
 20
0.0
 30
0.0
  0
ENDSEC
  0
SECTION
  2
TABLES
  0
TABLE
  2
VPORT
 70
0
  0
ENDTAB
  0
TABLE
  2
LTYPE
 70
1
  0
LTYPE
  2
CONTINUOUS
 70
0
  3
Solid line
 72
65
 73
0
 40
0.0
  0
ENDTAB
  0
TABLE
  2
LAYER
 70
1
  0
LAYER
  2
0
 70
64
 62
7
  6
continuous
  0
ENDTAB
  0
TABLE
  2
STYLE
 70
1
  0
STYLE
  2
STANDARD
 70
0
 40
0
 41
1.0
 50
0.0
 71
0
 42
1
 3
ARIAL.TTF
 4

  0
ENDTAB
  0
TABLE
  2
VIEW
 70
0
  0
ENDTAB
  0
ENDSEC
  0
SECTION
  2
BLOCKS
  0
BLOCK
  8
0
  2
FACEFEAT
 70
0
 10
0.0
 20
0.0
 30
0.0
  3
FACEFEAT
  0
LINE
  8
0
 62
0
 10
141.73522
 20
-5.931055
 30
0.0
 11
142.451591
 21
-6.276090000000012
 31
0.0
  0
LINE
  8
0
 62
0
 10
95.6437
 20
1.0033
 30
0.0
 11
141.73521999999878
 21
-5.931055000008104
 31
0.0
  0
LINE
  8
0
 62
0
 10
142.451591
 20
-6.27609
 30
0.0
 11
143.07312
 21
-6.819900000000013
 31
0.0
  0
LINE
  8
0
 62
0
 10
143.07312
 20
-6.8199
 30
0.0
 11
143.44142000000002
 21
-7.45489999999999
 31
0.0
  0
LINE
  8
0
 62
0
 10
143.44142
 20
-7.4549
 30
0.0
 11
143.6446199999997
 21
-8.166100000000087
 31
0.0
  0
LINE
  8
0
 62
0
 10
143.64462
 20
-8.1661
 30
0.0
 11
143.64462
 21
-82.9945
 31
0.0
  0
LINE
  8
0
 62
0
 10
143.64462
 20
-82.9945
 30
0.0
 11
143.607072
 21
-83.308331
 31
0.0
  0
LINE
  8
0
 62
0
 10
143.607072
 20
-83.308331
 30
0.0
 11
143.51973700000008
 21
-83.58998700000002
 31
0.0
  0
LINE
  8
0
 62
0
 10
143.519737
 20
-83.589987
 30
0.0
 11
143.3815210000001
 21
-83.84479600000007
 31
0.0
  0
LINE
  8
0
 62
0
 10
143.381521
 20
-83.844796
 30
0.0
 11
143.19843200000005
 21
-84.06674800000005
 31
0.0
  0
LINE
  8
0
 62
0
 10
143.198432
 20
-84.066748
 30
0.0
 11
142.97647999999995
 21
-84.24983599999992
 31
0.0
  0
LINE
  8
0
 62
0
 10
142.97648
 20
-84.249836
 30
0.0
 11
142.72167199999998
 21
-84.38805199999997
 31
0.0
  0
LINE
  8
0
 62
0
 10
142.721672
 20
-84.388052
 30
0.0
 11
142.440015
 21
-84.475388
 31
0.0
  0
LINE
  8
0
 62
0
 10
142.440015
 20
-84.475388
 30
0.0
 11
142.12062
 21
-84.50325999999998
 31
0.0
  0
LINE
  8
0
 62
0
 10
142.12062
 20
-84.50326
 30
0.0
 11
105.5197
 21
-84.503295
 31
0.0
  0
LINE
  8
0
 62
0
 10
105.5197
 20
-84.503295
 30
0.0
 11
105.180866
 21
-84.547095
 31
0.0
  0
LINE
  8
0
 62
0
 10
105.180866
 20
-84.547095
 30
0.0
 11
104.84957800000002
 21
-84.6306130000001
 31
0.0
  0
LINE
  8
0
 62
0
 10
104.849578
 20
-84.630613
 30
0.0
 11
104.53047699999999
 21
-84.75268299999998
 31
0.0
  0
LINE
  8
0
 62
0
 10
104.530477
 20
-84.752683
 30
0.0
 11
104.22803099999999
 21
-84.91159599999997
 31
0.0
  0
LINE
  8
0
 62
0
 10
104.228031
 20
-84.911596
 30
0.0
 11
103.94647599999992
 21
-85.10512599999987
 31
0.0
  0
LINE
  8
0
 62
0
 10
103.946476
 20
-85.105126
 30
0.0
 11
103.68975699999997
 21
-85.33056299999996
 31
0.0
  0
LINE
  8
0
 62
0
 10
103.689757
 20
-85.330563
 30
0.0
 11
103.46146700000003
 21
-85.58474900000003
 31
0.0
  0
LINE
  8
0
 62
0
 10
103.461467
 20
-85.584749
 30
0.0
 11
103.26480599999995
 21
-85.86412499999997
 31
0.0
  0
LINE
  8
0
 62
0
 10
103.264806
 20
-85.864125
 30
0.0
 11
103.102526
 21
-86.164778
 31
0.0
  0
LINE
  8
0
 62
0
 10
103.102526
 20
-86.164778
 30
0.0
 11
102.97689999999997
 21
-86.48249599999998
 31
0.0
  0
LINE
  8
0
 62
0
 10
102.9769
 20
-86.482496
 30
0.0
 11
102.889689
 21
-86.812831
 31
0.0
  0
LINE
  8
0
 62
0
 10
102.889689
 20
-86.812831
 30
0.0
 11
102.84211299999997
 21
-87.151155
 31
0.0
  0
LINE
  8
0
 62
0
 10
102.842113
 20
-87.151155
 30
0.0
 11
102.834839
 21
-87.492731
 31
0.0
  0
LINE
  8
0
 62
0
 10
102.834839
 20
-87.492731
 30
0.0
 11
102.807133
 21
-87.870139
 31
0.0
  0
LINE
  8
0
 62
0
 10
102.807133
 20
-87.870139
 30
0.0
 11
102.74009399999993
 21
-88.24257499999999
 31
0.0
  0
LINE
  8
0
 62
0
 10
102.740094
 20
-88.242575
 30
0.0
 11
102.63441899999981
 21
-88.60594199999994
 31
0.0
  0
LINE
  8
0
 62
0
 10
102.634419
 20
-88.605942
 30
0.0
 11
102.49127099999997
 21
-88.95624399999998
 31
0.0
  0
LINE
  8
0
 62
0
 10
102.491271
 20
-88.956244
 30
0.0
 11
102.312222
 21
-89.289627
 31
0.0
  0
LINE
  8
0
 62
0
 10
102.312222
 20
-89.289627
 30
0.0
 11
102.09924400000013
 21
-89.60242600000008
 31
0.0
  0
LINE
  8
0
 62
0
 10
102.099244
 20
-89.602426
 30
0.0
 11
101.85467699999991
 21
-89.89119899999993
 31
0.0
  0
LINE
  8
0
 62
0
 10
101.854677
 20
-89.891199
 30
0.0
 11
101.58121299999996
 21
-90.15277099999996
 31
0.0
  0
LINE
  8
0
 62
0
 10
101.581213
 20
-90.152771
 30
0.0
 11
101.281858
 21
-90.384265
 31
0.0
  0
LINE
  8
0
 62
0
 10
101.281858
 20
-90.384265
 30
0.0
 11
100.95990499999998
 21
-90.58313499999996
 31
0.0
  0
LINE
  8
0
 62
0
 10
100.959905
 20
-90.583135
 30
0.0
 11
100.61889599999996
 21
-90.74719399999991
 31
0.0
  0
LINE
  8
0
 62
0
 10
100.618896
 20
-90.747194
 30
0.0
 11
100.26257999999996
 21
-90.8746369999999
 31
0.0
  0
LINE
  8
0
 62
0
 10
100.26258
 20
-90.874637
 30
0.0
 11
99.89487599999998
 21
-90.96406299999992
 31
0.0
  0
LINE
  8
0
 62
0
 10
99.894876
 20
-90.964063
 30
0.0
 11
99.51982899999997
 21
-91.01448699999983
 31
0.0
  0
LINE
  8
0
 62
0
 10
99.519829
 20
-91.014487
 30
0.0
 11
99.141564
 21
-91.025356
 31
0.0
  0
LINE
  8
0
 62
0
 10
99.141564
 20
-91.025356
 30
0.0
 11
98.802927
 21
-91.030868
 31
0.0
  0
LINE
  8
0
 62
0
 10
98.802927
 20
-91.030868
 30
0.0
 11
98.467275
 21
-91.07608699999996
 31
0.0
  0
LINE
  8
0
 62
0
 10
98.467275
 20
-91.076087
 30
0.0
 11
98.13924399999999
 21
-91.16036299999992
 31
0.0
  0
LINE
  8
0
 62
0
 10
98.139244
 20
-91.160363
 30
0.0
 11
97.82336200000002
 21
-91.28253300000004
 31
0.0
  0
LINE
  8
0
 62
0
 10
97.823362
 20
-91.282533
 30
0.0
 11
97.5239899999999
 21
-91.44090899999982
 31
0.0
  0
LINE
  8
0
 62
0
 10
97.52399
 20
-91.440909
 30
0.0
 11
97.24526000000007
 21
-91.6333060000001
 31
0.0
  0
LINE
  8
0
 62
0
 10
97.24526
 20
-91.633306
 30
0.0
 11
96.99102099999998
 21
-91.85706699999997
 31
0.0
  0
LINE
  8
0
 62
0
 10
96.991021
 20
-91.857067
 30
0.0
 11
96.76478100000001
 21
-92.10910400000002
 31
0.0
  0
LINE
  8
0
 62
0
 10
96.764781
 20
-92.109104
 30
0.0
 11
96.56966500000006
 21
-92.38593600000004
 31
0.0
  0
LINE
  8
0
 62
0
 10
96.569665
 20
-92.385936
 30
0.0
 11
96.40836600000004
 21
-92.68374400000003
 31
0.0
  0
LINE
  8
0
 62
0
 10
96.408366
 20
-92.683744
 30
0.0
 11
96.2831100000001
 21
-92.99841500000004
 31
0.0
  0
LINE
  8
0
 62
0
 10
96.28311
 20
-92.998415
 30
0.0
 11
96.19562700000004
 21
-93.32560500000001
 31
0.0
  0
LINE
  8
0
 62
0
 10
96.195627
 20
-93.325605
 30
0.0
 11
96.14712399999998
 21
-93.660798
 31
0.0
  0
LINE
  8
0
 62
0
 10
96.147124
 20
-93.660798
 30
0.0
 11
96.13392
 21
-93.9997
 31
0.0
  0
LINE
  8
0
 62
0
 10
96.13392
 20
-93.9997
 30
0.0
 11
96.13278
 21
-97.737334
 31
0.0
  0
LINE
  8
0
 62
0
 10
96.13278
 20
-97.737334
 30
0.0
 11
96.10233299999993
 21
-98.01743599999999
 31
0.0
  0
LINE
  8
0
 62
0
 10
96.102333
 20
-98.017436
 30
0.0
 11
96.01499700000004
 21
-98.29909200000002
 31
0.0
  0
LINE
  8
0
 62
0
 10
96.014997
 20
-98.299092
 30
0.0
 11
95.87678100000012
 21
-98.55390100000007
 31
0.0
  0
LINE
  8
0
 62
0
 10
95.876781
 20
-98.553901
 30
0.0
 11
95.69369300000007
 21
-98.77585300000005
 31
0.0
  0
LINE
  8
0
 62
0
 10
95.693693
 20
-98.775853
 30
0.0
 11
95.4717400000001
 21
-98.9589420000001
 31
0.0
  0
LINE
  8
0
 62
0
 10
95.47174
 20
-98.958942
 30
0.0
 11
95.21693199999999
 21
-99.09715799999996
 31
0.0
  0
LINE
  8
0
 62
0
 10
95.216932
 20
-99.097158
 30
0.0
 11
94.93527600000006
 21
-99.18449300000016
 31
0.0
  0
LINE
  8
0
 62
0
 10
94.935276
 20
-99.184493
 30
0.0
 11
94.63278
 21
-99.21494
 31
0.0
  0
LINE
  8
0
 62
0
 10
94.63278
 20
-99.21494
 30
0.0
 11
34.25952
 21
-99.21494
 31
0.0
  0
LINE
  8
0
 62
0
 10
34.25952
 20
-99.21494
 30
0.0
 11
21.53445799999901
 21
-106.5814559999983
 31
0.0
  0
LINE
  8
0
 62
0
 10
21.534458
 20
-106.581456
 30
0.0
 11
21.36656400000002
 21
-106.66697800000004
 31
0.0
  0
LINE
  8
0
 62
0
 10
21.366564
 20
-106.666978
 30
0.0
 11
21.20790600000001
 21
-106.71416800000003
 31
0.0
  0
LINE
  8
0
 62
0
 10
21.207906
 20
-106.714168
 30
0.0
 11
21.058952
 21
-106.723674
 31
0.0
  0
LINE
  8
0
 62
0
 10
21.058952
 20
-106.723674
 30
0.0
 11
20.92016999999999
 21
-106.69614500000004
 31
0.0
  0
LINE
  8
0
 62
0
 10
20.92017
 20
-106.696145
 30
0.0
 11
20.79202800000001
 21
-106.63223199999997
 31
0.0
  0
LINE
  8
0
 62
0
 10
20.792028
 20
-106.632232
 30
0.0
 11
20.674995000000003
 21
-106.532584
 31
0.0
  0
LINE
  8
0
 62
0
 10
20.674995
 20
-106.532584
 30
0.0
 11
20.56953699999998
 21
-106.39785000000002
 31
0.0
  0
LINE
  8
0
 62
0
 10
20.569537
 20
-106.39785
 30
0.0
 11
11.670356999998585
 21
-90.92590900000081
 31
0.0
  0
LINE
  8
0
 62
0
 10
11.670357
 20
-90.925909
 30
0.0
 11
11.494135000000004
 21
-90.64962
 31
0.0
  0
LINE
  8
0
 62
0
 10
11.494135
 20
-90.64962
 30
0.0
 11
11.287719000000045
 21
-90.39509299999996
 31
0.0
  0
LINE
  8
0
 62
0
 10
11.287719
 20
-90.395093
 30
0.0
 11
11.05380700000004
 21
-90.16557799999995
 31
0.0
  0
LINE
  8
0
 62
0
 10
11.053807
 20
-90.165578
 30
0.0
 11
10.795410000000034
 21
-89.96402799999996
 31
0.0
  0
LINE
  8
0
 62
0
 10
10.79541
 20
-89.964028
 30
0.0
 11
10.515850999999968
 21
-89.79303600000006
 31
0.0
  0
LINE
  8
0
 62
0
 10
10.515851
 20
-89.793036
 30
0.0
 11
10.218727000000062
 21
-89.65480099999988
 31
0.0
  0
LINE
  8
0
 62
0
 10
10.218727
 20
-89.654801
 30
0.0
 11
9.907860000000033
 21
-89.5511019999999
 31
0.0
  0
LINE
  8
0
 62
0
 10
9.90786
 20
-89.551102
 30
0.0
 11
9.58725000000001
 21
-89.48327199999996
 31
0.0
  0
LINE
  8
0
 62
0
 10
9.58725
 20
-89.483272
 30
0.0
 11
9.261020999999998
 21
-89.45218600000001
 31
0.0
  0
LINE
  8
0
 62
0
 10
9.261021
 20
-89.452186
 30
0.0
 11
8.933371
 21
-89.458241
 31
0.0
  0
LINE
  8
0
 62
0
 10
8.933371
 20
-89.458241
 30
0.0
 11
8.608512999999995
 21
-89.50136199999996
 31
0.0
  0
LINE
  8
0
 62
0
 10
8.608513
 20
-89.501362
 30
0.0
 11
8.29062900000002
 21
-89.58099200000008
 31
0.0
  0
LINE
  8
0
 62
0
 10
8.290629
 20
-89.580992
 30
0.0
 11
7.983805999999981
 21
-89.69610699999994
 31
0.0
  0
LINE
  8
0
 62
0
 10
7.983806
 20
-89.696107
 30
0.0
 11
7.6496089999999155
 21
-89.86551199999982
 31
0.0
  0
LINE
  8
0
 62
0
 10
7.649609
 20
-89.865512
 30
0.0
 11
7.299097999999969
 21
-89.99788699999992
 31
0.0
  0
LINE
  8
0
 62
0
 10
7.299098
 20
-89.997887
 30
0.0
 11
6.936330000000035
 21
-90.09158800000014
 31
0.0
  0
LINE
  8
0
 62
0
 10
6.93633
 20
-90.091588
 30
0.0
 11
6.565557000000003
 21
-90.14551900000001
 31
0.0
  0
LINE
  8
0
 62
0
 10
6.565557
 20
-90.145519
 30
0.0
 11
6.191126
 21
-90.159045
 31
0.0
  0
LINE
  8
0
 62
0
 10
6.191126
 20
-90.159045
 30
0.0
 11
5.8174280000000005
 21
-90.13200999999998
 31
0.0
  0
LINE
  8
0
 62
0
 10
5.817428
 20
-90.13201
 30
0.0
 11
5.448844000000008
 21
-90.06472799999996
 31
0.0
  0
LINE
  8
0
 62
0
 10
5.448844
 20
-90.064728
 30
0.0
 11
5.089694999999953
 21
-89.95799100000016
 31
0.0
  0
LINE
  8
0
 62
0
 10
5.089695
 20
-89.957991
 30
0.0
 11
4.744190999999988
 21
-89.81304800000002
 31
0.0
  0
LINE
  8
0
 62
0
 10
4.744191
 20
-89.813048
 30
0.0
 11
4.416384000000028
 21
-89.63159899999994
 31
0.0
  0
LINE
  8
0
 62
0
 10
4.416384
 20
-89.631599
 30
0.0
 11
4.110117000000094
 21
-89.41577199999988
 31
0.0
  0
LINE
  8
0
 62
0
 10
4.110117
 20
-89.415772
 30
0.0
 11
3.828979999999987
 21
-89.16809700000002
 31
0.0
  0
LINE
  8
0
 62
0
 10
3.82898
 20
-89.168097
 30
0.0
 11
3.5762689999998796
 21
-88.89147700000011
 31
0.0
  0
LINE
  8
0
 62
0
 10
3.576269
 20
-88.891477
 30
0.0
 11
3.3549479999999
 21
-88.58915600000007
 31
0.0
  0
LINE
  8
0
 62
0
 10
3.354948
 20
-88.589156
 30
0.0
 11
3.16761100000018
 21
-88.2646789999999
 31
0.0
  0
LINE
  8
0
 62
0
 10
3.167611
 20
-88.264679
 30
0.0
 11
3.0164540000000266
 21
-87.92184799999998
 31
0.0
  0
LINE
  8
0
 62
0
 10
3.016454
 20
-87.921848
 30
0.0
 11
2.903249000000037
 21
-87.56468499999998
 31
0.0
  0
LINE
  8
0
 62
0
 10
2.903249
 20
-87.564685
 30
0.0
 11
2.829324999999896
 21
-87.19737500000001
 31
0.0
  0
LINE
  8
0
 62
0
 10
2.829325
 20
-87.197375
 30
0.0
 11
2.7955459999999928
 21
-86.824226
 31
0.0
  0
LINE
  8
0
 62
0
 10
2.795546
 20
-86.824226
 30
0.0
 11
2.802311000000001
 21
-86.449613
 31
0.0
  0
LINE
  8
0
 62
0
 10
2.802311
 20
-86.449613
 30
0.0
 11
2.849538000000103
 21
-86.07792600000002
 31
0.0
  0
LINE
  8
0
 62
0
 10
2.849538
 20
-86.077926
 30
0.0
 11
2.936674999999878
 21
-85.71352499999998
 31
0.0
  0
LINE
  8
0
 62
0
 10
2.936675
 20
-85.713525
 30
0.0
 11
3.0626999999999853
 21
-85.360681
 31
0.0
  0
LINE
  8
0
 62
0
 10
3.0627
 20
-85.360681
 30
0.0
 11
3.226136000000094
 21
-85.02353100000005
 31
0.0
  0
LINE
  8
0
 62
0
 10
3.226136
 20
-85.023531
 30
0.0
 11
3.4250650000001968
 21
-84.70602800000013
 31
0.0
  0
LINE
  8
0
 62
0
 10
3.425065
 20
-84.706028
 30
0.0
 11
3.6571570000000717
 21
-84.41189500000006
 31
0.0
  0
LINE
  8
0
 62
0
 10
3.657157
 20
-84.411895
 30
0.0
 11
3.919688999999999
 21
-84.144579
 31
0.0
  0
LINE
  8
0
 62
0
 10
3.919689
 20
-84.144579
 30
0.0
 11
4.2095840000000475
 21
-83.90721500000005
 31
0.0
  0
LINE
  8
0
 62
0
 10
4.209584
 20
-83.907215
 30
0.0
 11
4.523443999999998
 21
-83.702585
 31
0.0
  0
LINE
  8
0
 62
0
 10
4.523444
 20
-83.702585
 30
0.0
 11
4.794736999999905
 21
-83.47804199999989
 31
0.0
  0
LINE
  8
0
 62
0
 10
4.794737
 20
-83.478042
 30
0.0
 11
5.0360789999999565
 21
-83.22157899999996
 31
0.0
  0
LINE
  8
0
 62
0
 10
5.036079
 20
-83.221579
 30
0.0
 11
5.243733000000031
 21
-82.93715200000003
 31
0.0
  0
LINE
  8
0
 62
0
 10
5.243733
 20
-82.937152
 30
0.0
 11
5.414490000000036
 21
-82.62915700000002
 31
0.0
  0
LINE
  8
0
 62
0
 10
5.41449
 20
-82.629157
 30
0.0
 11
5.545712000000092
 21
-82.30235400000004
 31
0.0
  0
LINE
  8
0
 62
0
 10
5.545712
 20
-82.302354
 30
0.0
 11
5.6353690000000505
 21
-81.96179500000001
 31
0.0
  0
LINE
  8
0
 62
0
 10
5.635369
 20
-81.961795
 30
0.0
 11
5.682076000000018
 21
-81.612742
 31
0.0
  0
LINE
  8
0
 62
0
 10
5.682076
 20
-81.612742
 30
0.0
 11
5.685110999999998
 21
-81.260592
 31
0.0
  0
LINE
  8
0
 62
0
 10
5.685111
 20
-81.260592
 30
0.0
 11
5.6444279999999285
 21
-80.91078600000002
 31
0.0
  0
LINE
  8
0
 62
0
 10
5.644428
 20
-80.910786
 30
0.0
 11
5.560654000000149
 21
-80.56873199999995
 31
0.0
  0
LINE
  8
0
 62
0
 10
5.560654
 20
-80.568732
 30
0.0
 11
5.359400000000183
 21
-79.70519999999996
 31
0.0
  0
LINE
  8
0
 62
0
 10
5.3594
 20
-79.7052
 30
0.0
 11
5.0926999999999865
 21
-78.6892
 31
0.0
  0
LINE
  8
0
 62
0
 10
5.0927
 20
-78.6892
 30
0.0
 11
4.83870000000025
 21
-77.41919999999995
 31
0.0
  0
LINE
  8
0
 62
0
 10
4.8387
 20
-77.4192
 30
0.0
 11
4.711700000000042
 21
-75.9587
 31
0.0
  0
LINE
  8
0
 62
0
 10
4.7117
 20
-75.9587
 30
0.0
 11
4.648200000000025
 21
-75.1332
 31
0.0
  0
LINE
  8
0
 62
0
 10
4.6482
 20
-75.1332
 30
0.0
 11
4.584700000000035
 21
-73.9267
 31
0.0
  0
LINE
  8
0
 62
0
 10
4.5847
 20
-73.9267
 30
0.0
 11
4.5897
 21
-14.369700000000002
 31
0.0
  0
LINE
  8
0
 62
0
 10
4.5897
 20
-14.3697
 30
0.0
 11
4.5694389999999965
 21
-14.009132
 31
0.0
  0
LINE
  8
0
 62
0
 10
4.569439
 20
-14.009132
 30
0.0
 11
4.508947000000026
 21
-13.653097999999996
 31
0.0
  0
LINE
  8
0
 62
0
 10
4.508947
 20
-13.653098
 30
0.0
 11
4.408970999999892
 21
-13.306076000000031
 31
0.0
  0
LINE
  8
0
 62
0
 10
4.408971
 20
-13.306076
 30
0.0
 11
4.270771000000055
 21
-12.972428999999977
 31
0.0
  0
LINE
  8
0
 62
0
 10
4.270771
 20
-12.972429
 30
0.0
 11
4.096082999999884
 21
-12.656354000000064
 31
0.0
  0
LINE
  8
0
 62
0
 10
4.096083
 20
-12.656354
 30
0.0
 11
3.887104000000003
 21
-12.361824999999998
 31
0.0
  0
LINE
  8
0
 62
0
 10
3.887104
 20
-12.361825
 30
0.0
 11
3.6464620000000325
 21
-12.092545999999972
 31
0.0
  0
LINE
  8
0
 62
0
 10
3.646462
 20
-12.092546
 30
0.0
 11
3.377183999999859
 21
-11.851904000000157
 31
0.0
  0
LINE
  8
0
 62
0
 10
3.377184
 20
-11.851904
 30
0.0
 11
3.0826559999999916
 21
-11.642924000000013
 31
0.0
  0
LINE
  8
0
 62
0
 10
3.082656
 20
-11.642924
 30
0.0
 11
2.766581999999972
 21
-11.468234000000052
 31
0.0
  0
LINE
  8
0
 62
0
 10
2.766582
 20
-11.468234
 30
0.0
 11
2.4329359999999887
 21
-11.330033000000029
 31
0.0
  0
LINE
  8
0
 62
0
 10
2.432936
 20
-11.330033
 30
0.0
 11
2.085913999999985
 21
-11.230056000000049
 31
0.0
  0
LINE
  8
0
 62
0
 10
2.085914
 20
-11.230056
 30
0.0
 11
1.7298799999999774
 21
-11.169562000000134
 31
0.0
  0
LINE
  8
0
 62
0
 10
1.72988
 20
-11.169562
 30
0.0
 11
1.3693119999999999
 21
-11.149312000000004
 31
0.0
  0
LINE
  8
0
 62
0
 10
1.369312
 20
-11.149312
 30
0.0
 11
0.9951809999999998
 21
-11.129025000000004
 31
0.0
  0
LINE
  8
0
 62
0
 10
0.995181
 20
-11.129025
 30
0.0
 11
0.6254370000000247
 21
-11.06840899999985
 31
0.0
  0
LINE
  8
0
 62
0
 10
0.625437
 20
-11.068409
 30
0.0
 11
0.2644130000000117
 21
-10.968171999999957
 31
0.0
  0
LINE
  8
0
 62
0
 10
0.264413
 20
-10.968172
 30
0.0
 11
-0.08365599999997936
 21
-10.829487999999948
 31
0.0
  0
LINE
  8
0
 62
0
 10
-0.083656
 20
-10.829488
 30
0.0
 11
-0.4146910000000034
 21
-10.653985000000008
 31
0.0
  0
LINE
  8
0
 62
0
 10
-0.414691
 20
-10.653985
 30
0.0
 11
-0.7248100000000086
 21
-10.443719000000012
 31
0.0
  0
LINE
  8
0
 62
0
 10
-0.72481
 20
-10.443719
 30
0.0
 11
-1.0103770000000019
 21
-10.201156000000001
 31
0.0
  0
LINE
  8
0
 62
0
 10
-1.010377
 20
-10.201156
 30
0.0
 11
-1.2680449999999697
 21
-9.929139999999972
 31
0.0
  0
LINE
  8
0
 62
0
 10
-1.268045
 20
-9.92914
 30
0.0
 11
-1.4947910000000442
 21
-9.630860000000034
 31
0.0
  0
LINE
  8
0
 62
0
 10
-1.494791
 20
-9.63086
 30
0.0
 11
-1.68795899999995
 21
-9.30981199999997
 31
0.0
  0
LINE
  8
0
 62
0
 10
-1.687959
 20
-9.309812
 30
0.0
 11
-1.8452839999999724
 21
-8.969761999999987
 31
0.0
  0
LINE
  8
0
 62
0
 10
-1.845284
 20
-8.969762
 30
0.0
 11
-1.964919999999978
 21
-8.614694999999992
 31
0.0
  0
LINE
  8
0
 62
0
 10
-1.96492
 20
-8.614695
 30
0.0
 11
-2.04546499999995
 21
-8.248773999999989
 31
0.0
  0
LINE
  8
0
 62
0
 10
-2.045465
 20
-8.248774
 30
0.0
 11
-2.085974999999923
 21
-7.876289999999992
 31
0.0
  0
LINE
  8
0
 62
0
 10
-2.085975
 20
-7.87629
 30
0.0
 11
-2.085975
 21
-7.50161
 31
0.0
  0
LINE
  8
0
 62
0
 10
-2.085975
 20
-7.50161
 30
0.0
 11
-2.045465000000077
 21
-7.129125999999992
 31
0.0
  0
LINE
  8
0
 62
0
 10
-2.045465
 20
-7.129126
 30
0.0
 11
-1.9649200000000502
 21
-6.763204999999989
 31
0.0
  0
LINE
  8
0
 62
0
 10
-1.96492
 20
-6.763205
 30
0.0
 11
-1.845284000000022
 21
-6.408137999999993
 31
0.0
  0
LINE
  8
0
 62
0
 10
-1.845284
 20
-6.408138
 30
0.0
 11
-1.6879590000000282
 21
-6.068087999999987
 31
0.0
  0
LINE
  8
0
 62
0
 10
-1.687959
 20
-6.068088
 30
0.0
 11
-1.4947910000000497
 21
-5.74703999999997
 31
0.0
  0
LINE
  8
0
 62
0
 10
-1.494791
 20
-5.74704
 30
0.0
 11
-1.268044999999956
 21
-5.448760000000034
 31
0.0
  0
LINE
  8
0
 62
0
 10
-1.268045
 20
-5.44876
 30
0.0
 11
-1.01037700000003
 21
-5.176743999999972
 31
0.0
  0
LINE
  8
0
 62
0
 10
-1.010377
 20
-5.176744
 30
0.0
 11
-0.7248099999999982
 21
-4.9341810000000015
 31
0.0
  0
LINE
  8
0
 62
0
 10
-0.72481
 20
-4.934181
 30
0.0
 11
-0.4146909999999918
 21
-4.723915000000012
 31
0.0
  0
LINE
  8
0
 62
0
 10
-0.414691
 20
-4.723915
 30
0.0
 11
-0.08365599999999618
 21
-4.548412000000007
 31
0.0
  0
LINE
  8
0
 62
0
 10
-0.083656
 20
-4.548412
 30
0.0
 11
0.26441299999997936
 21
-4.409727999999948
 31
0.0
  0
LINE
  8
0
 62
0
 10
0.264413
 20
-4.409728
 30
0.0
 11
0.6254369999999879
 21
-4.309490999999956
 31
0.0
  0
LINE
  8
0
 62
0
 10
0.625437
 20
-4.309491
 30
0.0
 11
0.9951809999999754
 21
-4.24887499999985
 31
0.0
  0
LINE
  8
0
 62
0
 10
0.995181
 20
-4.248875
 30
0.0
 11
1.369312
 21
-4.228589999999998
 31
0.0
  0
LINE
  8
0
 62
0
 10
1.369312
 20
-4.22859
 30
0.0
 11
1.7354459999999998
 21
-4.210328999999996
 31
0.0
  0
LINE
  8
0
 62
0
 10
1.735446
 20
-4.210329
 30
0.0
 11
2.0971920000000237
 21
-4.150940000000144
 31
0.0
  0
LINE
  8
0
 62
0
 10
2.097192
 20
-4.15094
 30
0.0
 11
2.4499450000000054
 21
-4.051178000000019
 31
0.0
  0
LINE
  8
0
 62
0
 10
2.449945
 20
-4.051178
 30
0.0
 11
2.7892150000000036
 21
-3.9123130000000086
 31
0.0
  0
LINE
  8
0
 62
0
 10
2.789215
 20
-3.912313
 30
0.0
 11
3.110680999999913
 21
-3.736112999999841
 31
0.0
  0
LINE
  8
0
 62
0
 10
3.110681
 20
-3.736113
 30
0.0
 11
3.410252000000053
 21
-3.5248200000000756
 31
0.0
  0
LINE
  8
0
 62
0
 10
3.410252
 20
-3.52482
 30
0.0
 11
3.684113000000015
 21
-3.2811250000000167
 31
0.0
  0
LINE
  8
0
 62
0
 10
3.684113
 20
-3.281125
 30
0.0
 11
3.9287779999999923
 21
-3.0081299999999933
 31
0.0
  0
LINE
  8
0
 62
0
 10
3.928778
 20
-3.00813
 30
0.0
 11
4.141133000000005
 21
-2.709311000000004
 31
0.0
  0
LINE
  8
0
 62
0
 10
4.141133
 20
-2.709311
 30
0.0
 11
4.318473000000129
 21
-2.388471000000071
 31
0.0
  0
LINE
  8
0
 62
0
 10
4.318473
 20
-2.388471
 30
0.0
 11
4.45854099999998
 21
-2.0496969999999917
 31
0.0
  0
LINE
  8
0
 62
0
 10
4.458541
 20
-2.049697
 30
0.0
 11
4.559554000000127
 21
-1.6973000000000362
 31
0.0
  0
LINE
  8
0
 62
0
 10
4.559554
 20
-1.6973
 30
0.0
 11
4.6202259999999935
 21
-1.3357669999999988
 31
0.0
  0
LINE
  8
0
 62
0
 10
4.620226
 20
-1.335767
 30
0.0
 11
4.639699999999997
 21
-0.9696999999999998
 31
0.0
  0
LINE
  8
0
 62
0
 10
4.6397
 20
-0.9697
 30
0.0
 11
4.64
 21
-0.05410000000000004
 31
0.0
  0
LINE
  8
0
 62
0
 10
4.64
 20
-0.0541
 30
0.0
 11
4.661983000000071
 21
0.16152499999999279
 31
0.0
  0
LINE
  8
0
 62
0
 10
4.661983
 20
0.161525
 30
0.0
 11
4.723116999999922
 21
0.35868500000002423
 31
0.0
  0
LINE
  8
0
 62
0
 10
4.723117
 20
0.358685
 30
0.0
 11
4.8198689999999935
 21
0.5370510000000033
 31
0.0
  0
LINE
  8
0
 62
0
 10
4.819869
 20
0.537051
 30
0.0
 11
4.9480300000000135
 21
0.6924169999999892
 31
0.0
  0
LINE
  8
0
 62
0
 10
4.94803
 20
0.692417
 30
0.0
 11
5.10339700000004
 21
0.820578999999951
 31
0.0
  0
LINE
  8
0
 62
0
 10
5.103397
 20
0.820579
 30
0.0
 11
5.281762999999977
 21
0.9173300000000428
 31
0.0
  0
LINE
  8
0
 62
0
 10
5.281763
 20
0.91733
 30
0.0
 11
5.4789219999999785
 21
0.9784650000000678
 31
0.0
  0
LINE
  8
0
 62
0
 10
5.478922
 20
0.978465
 30
0.0
 11
5.694099999999999
 21
1.0000000000000053
 31
0.0
  0
LINE
  8
0
 62
0
 10
5.6941
 20
1.0
 30
0.0
 11
95.64370000000001
 21
1.0033
 31
0.0
  0
CIRCLE
  8
0
 62
0
 10
99.3897
 20
-87.6597
 30
0.0
 40
1.6
  0
CIRCLE
  8
0
 62
0
 10
123.6397
 20
-63.3097
 30
0.0
 40
1.35
  0
CIRCLE
  8
0
 62
0
 10
6.3597
 20
-86.7597
 30
0.0
 40
1.6
  0
CIRCLE
  8
0
 62
0
 10
22.8346
 20
-77.4192
 30
0.0
 40
1.35
  0
CIRCLE
  8
0
 62
0
 10
48.3362
 20
-58.8772
 30
0.0
 40
1.35
  0
CIRCLE
  8
0
 62
0
 10
123.6397
 20
-25.1097
 30
0.0
 40
1.35
  0
CIRCLE
  8
0
 62
0
 10
48.26508
 20
-20.71878
 30
0.0
 40
1.35
  0
CIRCLE
  8
0
 62
0
 10
1.3997
 20
-7.6997
 30
0.0
 40
1.6
  0
ENDBLK
  0
ENDSEC
  0
SECTION
  2
ENTITIES
  0
INSERT
  2
FACEFEAT
  8
0
 62
0
 10
0.0
 20
0.0
 30
0.0
  0
ENDSEC
  0
EOF
